<svg viewBox="0 0 32 32" fill="none" xmlns="http://www.w3.org/2000/svg" id="Herb-Flat--Streamline-Fluent-Emoji.svg" height="32" width="32"><desc>Herb Flat Streamline Emoji: https://streamlinehq.com</desc><path d="m8.01807 29.5999 1.14 0.39 1.35003 -3.8982 4.0199 0.4184c0.33 0.03 0.63 -0.21 0.66 -0.54 0.03 -0.33 -0.21 -0.63 -0.54 -0.66l-3.7328 -0.3894c0.9383 -2.5812 2.6983 -4.8383 4.9729 -6.3808 0.0393 -0.0266 0.0784 -0.0534 0.1175 -0.0804l4.1424 0.4405c0.33 0.03 0.63 -0.21 0.66 -0.54 0.03 -0.33 -0.21 -0.63 -0.54 -0.66l-2.9042 -0.3095c1.8224 -1.6235 3.2278 -3.7129 4.0243 -6.0306l0.38 -1.09c0.11 -0.31996 -0.05 -0.65996 -0.37 -0.76996 -0.32 -0.11 -0.66 0.04999 -0.77 0.36999l-0.38 1.08997c-0.7845 2.2681 -2.2015 4.2963 -4.0464 5.8242l-1.7037 -3.504c-0.15 -0.3 -0.51 -0.43 -0.81 -0.28 -0.3 0.15 -0.43 0.51 -0.28 0.81l1.8065 3.7154c-0.0021 0.0015 -0.0043 0.003 -0.0064 0.0044 -2.3668 1.6028 -4.2301 3.9262 -5.28221 6.59L8.61802 21.43c-0.15 -0.3 -0.51 -0.43 -0.81 -0.28 -0.3 0.15 -0.43 0.51 -0.28 0.81l1.82981 3.7634 -1.33976 3.8765Z" fill="#44911b" stroke-width="1"></path><path d="M23.9781 2c-3.34 1.63 -4.74 5.66 -3.11 9 3.35 -1.63 4.74 -5.66 3.11 -9Z" fill="#86d72f" stroke-width="1"></path><path d="m15.788 9.05008 -1.81 -3.72c-2.1 1.02 -2.97 3.54999 -1.95 5.65002l1.81 3.72c2.1 -1.03 2.97 -3.55 1.95 -5.65002Z" fill="#86d72f" stroke-width="1"></path><path d="m10.3581 15.4399 -2.32004 -4.76c-2.68 1.31 -3.79999 4.54 -2.48999 7.22l2.31999 4.76c2.68004 -1.31 3.79004 -4.54 2.49004 -7.22Z" fill="#86d72f" stroke-width="1"></path><path d="m27.9181 15.4702 -4.12 -0.4301c-2.32 -0.25 -4.39 1.4401 -4.64 3.7601l4.12 0.43c2.32 0.24 4.4 -1.44 4.64 -3.76Z" fill="#86d72f" stroke-width="1"></path><path d="m19.3481 21.6 5.27 0.55c-0.31 2.97 -2.97 5.12 -5.94 4.81l-5.27 -0.55c0.31 -2.97 2.97 -5.12 5.94 -4.81Z" fill="#86d72f" stroke-width="1"></path></svg>